<svg width="25" height="20" viewBox="0 0 25 20" fill="none" xmlns="http://www.w3.org/2000/svg">
<path d="M22.8302 10.1249C25.1255 7.80754 25.1255 4.05461 22.8302 1.73722C20.799 -0.313557 17.5977 -0.580159 15.2618 1.10558L15.1968 1.1507C14.6118 1.57316 14.4777 2.39347 14.8962 2.98C15.3146 3.56652 16.1271 3.70597 16.708 3.28351L16.773 3.2384C18.0771 2.29914 19.8605 2.44679 20.9899 3.59113C22.2696 4.88312 22.2696 6.97492 20.9899 8.26691L16.4318 12.8771C15.1521 14.1691 13.0802 14.1691 11.8005 12.8771C10.6671 11.7327 10.5209 9.93215 11.4512 8.61965L11.4959 8.55402C11.9143 7.9634 11.7762 7.14308 11.1952 6.72472C10.6143 6.30636 9.79773 6.44172 9.38336 7.02824L9.33867 7.09386C7.66492 9.44816 7.92898 12.6802 9.96023 14.731C12.2555 17.0484 15.9727 17.0484 18.268 14.731L22.8302 10.1249ZM1.72148 9.16515C-0.573828 11.4825 -0.573828 15.2355 1.72148 17.5528C3.75273 19.6036 6.95398 19.8702 9.28992 18.1845L9.35492 18.1394C9.93992 17.7169 10.074 16.8966 9.65555 16.3101C9.23711 15.7236 8.42461 15.5841 7.84367 16.0066L7.77867 16.0517C6.47461 16.9909 4.69117 16.8433 3.5618 15.6989C2.28211 14.4028 2.28211 12.3111 3.5618 11.0191L8.11992 6.41301C9.39961 5.12101 11.4715 5.12101 12.7512 6.41301C13.8846 7.55734 14.0309 9.35793 13.1005 10.6745L13.0559 10.7402C12.6374 11.3308 12.7755 12.1511 13.3565 12.5695C13.9374 12.9878 14.754 12.8525 15.1684 12.2659L15.213 12.2003C16.8868 9.84191 16.6227 6.60988 14.5915 4.5591C12.2962 2.24172 8.57898 2.24172 6.28367 4.5591L1.72148 9.16515Z" fill="#121315"/>
</svg>
